<?xml version="1.0" encoding="UTF-8"?>
<svg id="Capa_1" data-name="Capa 1" xmlns="http://www.w3.org/2000/svg" viewBox="0 0 391.84 391.78">
  <rect y="193.38" width="391.84" height="4.69" style="fill: #ff5b40;"/>
  <polygon points="388.62 164.17 1.98 225.4 1.67 225.45 2.01 227.58 388.65 166.35 388.96 166.3 388.62 164.17" style="fill: #ff5b40;"/>
  <polygon points="381.91 134.34 381.6 134.44 9.61 255.3 9.31 255.4 9.97 257.45 10.28 257.35 382.27 136.49 382.58 136.39 381.91 134.34" style="fill: #ff5b40;"/>
  <polygon points="370.04 106.07 21.16 283.6 20.87 283.75 21.85 285.67 370.74 108.13 371.02 107.99 370.04 106.07" style="fill: #ff5b40;"/>
  <polygon points="353.6 79.65 37.26 310.24 37.01 310.43 38.28 312.17 354.61 81.58 354.87 81.39 353.6 79.65" style="fill: #ff5b40;"/>
  <polygon points="309.87 36.51 80.25 353.95 82 355.22 311.43 38.04 311.62 37.78 309.87 36.51" style="fill: #ff5b40;"/>
  <polygon points="283.56 20.68 106.54 369.84 106.4 370.12 108.32 371.1 285.34 21.95 285.49 21.66 283.56 20.68" style="fill: #ff5b40;"/>
  <polygon points="254.12 8.86 135.82 382.01 135.72 382.31 137.78 382.97 256.18 9.51 254.12 8.86" style="fill: #ff5b40;"/>
  <polygon points="224.44 2.09 165.32 389.38 167.45 389.71 226.53 2.73 226.58 2.42 224.44 2.09" style="fill: #ff5b40;"/>
  <polygon points="195.75 .32 195.75 0 193.59 .01 196.13 391.46 196.13 391.78 198.29 391.77 195.75 .32" style="fill: #ff5b40;"/>
  <polygon points="165.16 2.75 165.1 2.44 162.98 2.79 226.72 389.03 226.77 389.34 228.9 388.99 165.16 2.75" style="fill: #ff5b40;"/>
  <polygon points="134.95 10.05 134.85 9.75 132.8 10.43 132.91 10.74 256.95 381.69 257.05 381.99 259.1 381.3 134.95 10.05" style="fill: #ff5b40;"/>
  <polygon points="287.18 368.86 106.63 21.88 106.48 21.6 104.57 22.6 285.41 370.14 287.32 369.15 287.18 368.86" style="fill: #ff5b40;"/>
  <polygon points="80.33 37.76 78.59 39.04 311.36 353.77 311.55 354.03 313.29 352.75 80.33 37.76" style="fill: #ff5b40;"/>
  <polygon points="336.16 332.2 57.23 58 57 57.77 55.49 59.31 334.65 333.74 334.88 333.96 336.39 332.42 336.16 332.2" style="fill: #ff5b40;"/>
  <polygon points="356.1 308.15 37.03 81.9 36.77 81.72 35.53 83.48 354.85 309.91 355.11 310.09 356.36 308.33 356.1 308.15" style="fill: #ff5b40;"/>
  <rect x="194.87" y=".01" width="2.16" height="391.78" transform="translate(-66.56 284.58) rotate(-63.66)" style="fill: #ff5b40;"/>
  <polygon points="9.58 136.58 9.27 136.48 8.63 138.54 382.3 255.21 382.61 255.3 383.25 253.24 9.58 136.58" style="fill: #ff5b40;"/>
  <rect x="194.87" y="0" width="2.16" height="391.78" transform="translate(-26.31 361.36) rotate(-81.66)" style="fill: #ff5b40;"/>
  <polygon points="336.11 59.04 334.94 57.86 334.95 57.85 333.42 56.33 333.41 56.34 332.8 55.72 195.69 192.82 195.47 193.05 196.35 193.93 57.15 333.66 56.93 333.89 58.46 335.41 197.87 195.45 198.78 196.36 336.11 59.04" style="fill: #ff5b40;"/>
</svg> 