<?xml version="1.0" encoding="UTF-8"?>
<svg id="Capa_1" data-name="Capa 1" xmlns="http://www.w3.org/2000/svg" viewBox="0 0 4423.92 2759.82">
  <g>
    <path d="M3043.39,1308.96v-618.63h227.76l126.54,439.61h1.88l123.72-439.61h215.59v618.63h-140.6v-465.84h-1.88l-139.66,465.84h-133.1l-137.77-465.84h-1.88v465.84h-140.6Z" style="fill: #273642;"/>
    <path d="M3813.85,1308.96v-618.63h249.33c38.1,0,72.02,3.44,101.7,10.32,29.68,6.89,54.98,17.03,75.92,30.46,20.93,13.45,36.87,30.15,47.81,50.15,10.92,20.01,16.4,43.44,16.4,70.3,0,24.99-5.16,47.49-15.47,67.48-10.3,20.01-26.87,36.09-49.67,48.27-22.82,12.19-52.66,19.85-89.52,22.97v8.44c63.11,3.13,108.88,17.81,137.31,44.04,28.43,26.25,42.65,60.93,42.65,104.05,0,36.25-9.37,66.24-28.12,89.99-18.74,23.75-46.08,41.71-82.01,53.89-35.94,12.19-80.46,18.28-133.56,18.28h-272.77ZM3965.69,947.15h81.55c35.62,0,62.8-5.93,81.55-17.81,18.74-11.86,28.11-29.35,28.11-52.48,0-21.87-8.44-38.27-25.3-49.21-16.88-10.92-42.18-16.4-75.92-16.4h-89.99v135.91h0ZM3965.69,1187.11h114.36c31.86,0,56.55-5.77,74.04-17.34,17.49-11.56,26.25-27.96,26.25-49.21,0-23.74-9.84-41.38-29.53-52.95-19.69-11.56-49.21-17.34-88.57-17.34h-96.55v136.84h0Z" style="fill: #273642;"/>
    <path d="M3034.01,1901.98v-74.99c28.12-25.61,56.25-54.36,84.36-86.22,28.12-31.88,54.83-65.46,80.15-100.76,25.3-35.29,48.42-71.07,69.36-107.33,20.93-36.23,38.27-71.53,52.02-105.91h93.73v619.56h-52.5v-569.89h-7.49c-23.13,51.87-49.21,99.98-78.27,144.35-29.06,44.38-59.52,84.98-91.38,121.85-31.88,36.87-64.07,70.61-96.55,101.22v8.44h399.31v49.67h-452.74Z" style="fill: #273642;"/>
    <path d="M3797.89,2059.45c-41.87,0-77.79-6.72-107.79-20.16-29.99-13.42-52.95-32.47-68.89-57.17-15.94-24.68-24.53-53.58-25.78-86.71l47.8-15.93c3.12,39.99,16.24,71.4,39.37,94.2,23.1,22.82,60.6,34.21,112.47,34.21s95.28-13.6,124.66-40.78c29.37-27.18,44.06-70.76,44.06-130.75,0-20-2.04-39.52-6.09-58.58-4.08-19.05-11.11-36.24-21.09-51.55-10-15.31-23.76-27.65-41.25-37.02-17.5-9.38-39.68-14.07-66.55-14.07-24.99,0-46.39,3.13-64.2,9.37-17.81,6.26-32.34,14.54-43.58,24.84-11.25,10.32-20.01,21.56-26.25,33.74-6.25,12.19-10.63,23.91-13.12,35.16h-70.29l17.81-350.56h358.99v49.67h-310.25l-15.94,251.2h12.19c12.49-39.98,33.74-67.63,63.74-82.94,29.99-15.31,61.53-22.97,94.66-22.97,43.11,0,78.27,9.06,105.45,27.18,27.18,18.13,47.34,43.11,60.46,74.99,13.11,31.86,19.67,68.74,19.67,110.6,0,54.37-9.84,97.96-29.52,130.77-19.69,32.8-46.09,56.56-79.2,71.24-33.13,14.66-70.3,22.02-111.55,22.02h.01Z" style="fill: #273642;"/>
  </g>
  <polygon points="4292.84 1672.49 4271.85 1651.84 4091.68 1834.98 4280.38 1834.98 4280.38 1805.53 4161.96 1805.53 4292.84 1672.49" style="fill: #273642;"/>
  <g>
    <rect x="155.74" y="1352.57" width="2460.13" height="29.45" style="fill: #273642;"/>
    <polygon points="2595.71 1169.12 168.2 1553.6 166.22 1553.91 168.34 1567.29 2595.85 1182.81 2597.83 1182.49 2595.71 1169.12" style="fill: #273642;"/>
    <polygon points="2553.53 981.84 2551.63 982.46 216.07 1741.3 214.17 1741.92 218.36 1754.79 220.26 1754.17 2555.83 995.33 2557.73 994.71 2553.53 981.84" style="fill: #273642;"/>
    <polygon points="2479.04 804.35 288.58 1919.01 286.8 1919.91 292.94 1931.98 2483.4 817.33 2485.18 816.42 2479.04 804.35" style="fill: #273642;"/>
    <polygon points="2375.8 638.49 389.7 2086.24 388.08 2087.42 396.06 2098.36 2382.16 650.61 2383.77 649.43 2375.8 638.49" style="fill: #273642;"/>
    <polygon points="2101.25 367.66 659.59 2360.69 670.56 2368.63 2111.04 377.22 2112.22 375.6 2101.25 367.66" style="fill: #273642;"/>
    <polygon points="1936.09 268.28 824.65 2460.42 823.74 2462.2 835.81 2468.33 1947.25 276.19 1948.16 274.41 1936.09 268.28" style="fill: #273642;"/>
    <polygon points="1751.23 194.02 1008.49 2536.85 1007.88 2538.76 1020.79 2542.85 1764.14 198.11 1751.23 194.02" style="fill: #273642;"/>
    <polygon points="1564.9 151.55 1193.68 2583.13 1207.07 2585.18 1577.99 155.57 1578.29 153.59 1564.9 151.55" style="fill: #273642;"/>
    <polygon points="1384.75 140.41 1384.74 138.41 1371.19 138.48 1387.15 2596.19 1387.16 2598.19 1400.7 2598.12 1384.75 140.41" style="fill: #273642;"/>
    <polygon points="1192.67 155.67 1192.35 153.7 1178.98 155.91 1579.21 2580.92 1579.53 2582.89 1592.9 2580.66 1192.67 155.67" style="fill: #273642;"/>
    <polygon points="1003.03 201.53 1002.39 199.63 989.55 203.92 990.18 205.82 1769.01 2534.82 1769.64 2536.72 1782.48 2532.42 1003.03 201.53" style="fill: #273642;"/>
    <polygon points="1958.77 2454.31 825.21 275.81 824.28 274.04 812.26 280.29 1947.68 2462.34 1959.7 2456.08 1958.77 2454.31" style="fill: #273642;"/>
    <polygon points="660.07 375.47 649.17 383.52 2110.63 2359.56 2111.82 2361.17 2122.72 2353.12 660.07 375.47" style="fill: #273642;"/>
    <polygon points="2266.32 2224.12 515.04 502.55 513.62 501.15 504.13 510.8 2256.82 2233.77 2258.25 2235.18 2267.74 2225.52 2266.32 2224.12" style="fill: #273642;"/>
    <polygon points="2391.51 2073.11 388.26 652.64 386.63 651.48 378.8 662.52 2383.67 2084.16 2385.31 2085.32 2393.14 2074.27 2391.51 2073.11" style="fill: #273642;"/>
    <rect x="1379.21" y="138.5" width="13.54" height="2459.76" transform="translate(-455.29 2003.29) rotate(-63.66)" style="fill: #273642;"/>
    <polygon points="215.87 995.9 213.96 995.3 209.93 1008.24 2556.02 1740.71 2557.94 1741.31 2561.95 1728.37 215.87 995.9" style="fill: #273642;"/>
    <rect x="1379.22" y="138.47" width="13.55" height="2459.78" transform="translate(-168.96 2541.18) rotate(-81.66)" style="fill: #273642;"/>
    <polygon points="2266.02 509.06 2258.64 501.69 2258.72 501.61 2249.13 492.05 2249.07 492.11 2245.19 488.24 1384.4 1349.03 1382.98 1350.45 1388.51 1355.98 514.57 2233.28 513.16 2234.7 522.75 2244.26 1398.09 1365.55 1403.81 1371.27 2266.02 509.06" style="fill: #273642;"/>
  </g>
</svg>